<svg xmlns="http://www.w3.org/2000/svg" viewBox="0 0 828 476" width="828" height="476" role="img" aria-label="A simple garden — smiley sun, trees, a pond with fish, a cloud and flowers — drawn from binary digits">
<title>Binary garden</title>
<style>
text{font-family:'SFMono-Regular',Consolas,'Liberation Mono',Menlo,monospace;font-size:18px;font-weight:700;}
.tw0{animation:tw 3.6s ease-in-out 0s infinite;}
.tw1{animation:tw 3.6s ease-in-out .7s infinite;}
.tw2{animation:tw 3.6s ease-in-out 1.4s infinite;}
@keyframes tw{0%,100%{opacity:1}50%{opacity:.72}}
.swim{animation:swim 2.8s ease-in-out infinite alternate;}
@keyframes swim{from{transform:translateX(-4px)}to{transform:translateX(4px)}}
</style>
<rect width="828" height="476" fill="#000000"/>
<text x="117" y="36" fill="#f7f7f7" class="tw0">0</text>
<text x="62" y="56" fill="#f7f7f7" class="tw2">0</text><text x="106" y="56" fill="#f7f7f7" class="tw0">0</text><text x="117" y="56" fill="#f7f7f7" class="tw1">1</text><text x="128" y="56" fill="#f7f7f7" class="tw2">0</text><text x="172" y="56" fill="#f7f7f7" class="tw0">1</text>
<text x="84" y="76" fill="#f7f7f7" class="tw2">0</text><text x="95" y="76" fill="#f7f7f7" class="tw0">0</text><text x="106" y="76" fill="#f7f7f7" class="tw1">1</text><text x="117" y="76" fill="#f7f7f7" class="tw2">1</text><text x="128" y="76" fill="#f7f7f7" class="tw0">1</text><text x="139" y="76" fill="#f7f7f7" class="tw1">0</text><text x="150" y="76" fill="#f7f7f7" class="tw2">0</text><text x="414" y="76" fill="#f7f7f7" class="tw2">1</text><text x="425" y="76" fill="#f7f7f7" class="tw0">1</text><text x="436" y="76" fill="#f7f7f7" class="tw1">1</text><text x="447" y="76" fill="#f7f7f7" class="tw2">0</text><text x="458" y="76" fill="#f7f7f7" class="tw0">0</text><text x="469" y="76" fill="#f7f7f7" class="tw1">0</text><text x="480" y="76" fill="#f7f7f7" class="tw2">0</text><text x="491" y="76" fill="#f7f7f7" class="tw0">1</text><text x="502" y="76" fill="#f7f7f7" class="tw1">1</text>
<text x="73" y="96" fill="#f7f7f7" class="tw2">0</text><text x="84" y="96" fill="#f7f7f7" class="tw0">0</text><text x="95" y="96" fill="#f7f7f7" class="tw1">0</text><text x="106" y="96" fill="#f7f7f7" class="tw2">0</text><text x="117" y="96" fill="#f7f7f7" class="tw0">1</text><text x="128" y="96" fill="#f7f7f7" class="tw1">1</text><text x="139" y="96" fill="#f7f7f7" class="tw2">1</text><text x="150" y="96" fill="#f7f7f7" class="tw0">0</text><text x="161" y="96" fill="#f7f7f7" class="tw1">0</text><text x="403" y="96" fill="#f7f7f7" class="tw2">0</text><text x="414" y="96" fill="#f7f7f7" class="tw0">0</text><text x="425" y="96" fill="#f7f7f7" class="tw1">1</text><text x="436" y="96" fill="#f7f7f7" class="tw2">1</text><text x="447" y="96" fill="#f7f7f7" class="tw0">1</text><text x="458" y="96" fill="#f7f7f7" class="tw1">0</text><text x="469" y="96" fill="#f7f7f7" class="tw2">0</text><text x="480" y="96" fill="#f7f7f7" class="tw0">0</text><text x="491" y="96" fill="#f7f7f7" class="tw1">0</text><text x="502" y="96" fill="#f7f7f7" class="tw2">1</text><text x="513" y="96" fill="#f7f7f7" class="tw0">1</text><text x="524" y="96" fill="#f7f7f7" class="tw1">1</text>
<text x="73" y="116" fill="#f7f7f7" class="tw0">1</text><text x="84" y="116" fill="#f7f7f7" class="tw1">0</text><text x="106" y="116" fill="#f7f7f7" class="tw0">0</text><text x="117" y="116" fill="#f7f7f7" class="tw1">0</text><text x="128" y="116" fill="#f7f7f7" class="tw2">1</text><text x="150" y="116" fill="#f7f7f7" class="tw1">1</text><text x="161" y="116" fill="#f7f7f7" class="tw2">0</text><text x="392" y="116" fill="#f7f7f7" class="tw2">0</text><text x="403" y="116" fill="#f7f7f7" class="tw0">1</text><text x="414" y="116" fill="#f7f7f7" class="tw1">0</text><text x="425" y="116" fill="#f7f7f7" class="tw2">0</text><text x="436" y="116" fill="#f7f7f7" class="tw0">1</text><text x="447" y="116" fill="#f7f7f7" class="tw1">0</text><text x="458" y="116" fill="#f7f7f7" class="tw2">1</text><text x="469" y="116" fill="#f7f7f7" class="tw0">0</text><text x="480" y="116" fill="#f7f7f7" class="tw1">1</text><text x="491" y="116" fill="#f7f7f7" class="tw2">0</text><text x="502" y="116" fill="#f7f7f7" class="tw0">0</text><text x="513" y="116" fill="#f7f7f7" class="tw1">1</text><text x="524" y="116" fill="#f7f7f7" class="tw2">0</text><text x="535" y="116" fill="#f7f7f7" class="tw0">1</text>
<text x="51" y="136" fill="#f7f7f7" class="tw2">0</text><text x="73" y="136" fill="#f7f7f7" class="tw1">0</text><text x="84" y="136" fill="#f7f7f7" class="tw2">0</text><text x="95" y="136" fill="#f7f7f7" class="tw0">1</text><text x="106" y="136" fill="#f7f7f7" class="tw1">1</text><text x="117" y="136" fill="#f7f7f7" class="tw2">0</text><text x="128" y="136" fill="#f7f7f7" class="tw0">0</text><text x="139" y="136" fill="#f7f7f7" class="tw1">1</text><text x="150" y="136" fill="#f7f7f7" class="tw2">0</text><text x="161" y="136" fill="#f7f7f7" class="tw0">0</text><text x="183" y="136" fill="#f7f7f7" class="tw2">1</text><text x="271" y="136" fill="#f7f7f7" class="tw1">0</text><text x="282" y="136" fill="#f7f7f7" class="tw2">0</text>
<text x="73" y="156" fill="#f7f7f7" class="tw2">0</text><text x="84" y="156" fill="#f7f7f7" class="tw0">0</text><text x="106" y="156" fill="#f7f7f7" class="tw2">0</text><text x="117" y="156" fill="#f7f7f7" class="tw0">0</text><text x="128" y="156" fill="#f7f7f7" class="tw1">0</text><text x="150" y="156" fill="#f7f7f7" class="tw0">0</text><text x="161" y="156" fill="#f7f7f7" class="tw1">0</text><text x="249" y="156" fill="#f7f7f7" class="tw0">0</text><text x="260" y="156" fill="#f7f7f7" class="tw1">0</text><text x="271" y="156" fill="#f7f7f7" class="tw2">0</text><text x="282" y="156" fill="#f7f7f7" class="tw0">0</text><text x="293" y="156" fill="#f7f7f7" class="tw1">0</text><text x="304" y="156" fill="#f7f7f7" class="tw2">0</text>
<text x="73" y="176" fill="#f7f7f7" class="tw0">1</text><text x="84" y="176" fill="#f7f7f7" class="tw1">0</text><text x="95" y="176" fill="#f7f7f7" class="tw2">0</text><text x="139" y="176" fill="#f7f7f7" class="tw0">1</text><text x="150" y="176" fill="#f7f7f7" class="tw1">1</text><text x="161" y="176" fill="#f7f7f7" class="tw2">0</text><text x="238" y="176" fill="#f7f7f7" class="tw0">0</text><text x="249" y="176" fill="#f7f7f7" class="tw1">0</text><text x="260" y="176" fill="#f7f7f7" class="tw2">1</text><text x="271" y="176" fill="#f7f7f7" class="tw0">0</text><text x="282" y="176" fill="#f7f7f7" class="tw1">0</text><text x="293" y="176" fill="#f7f7f7" class="tw2">1</text><text x="304" y="176" fill="#f7f7f7" class="tw0">1</text><text x="315" y="176" fill="#f7f7f7" class="tw1">0</text><text x="678" y="176" fill="#f7f7f7" class="tw1">1</text><text x="689" y="176" fill="#f7f7f7" class="tw2">1</text>
<text x="84" y="196" fill="#f7f7f7" class="tw2">0</text><text x="95" y="196" fill="#f7f7f7" class="tw0">1</text><text x="106" y="196" fill="#f7f7f7" class="tw1">0</text><text x="117" y="196" fill="#f7f7f7" class="tw2">1</text><text x="128" y="196" fill="#f7f7f7" class="tw0">0</text><text x="139" y="196" fill="#f7f7f7" class="tw1">0</text><text x="150" y="196" fill="#f7f7f7" class="tw2">1</text><text x="238" y="196" fill="#f7f7f7" class="tw1">0</text><text x="249" y="196" fill="#f7f7f7" class="tw2">1</text><text x="260" y="196" fill="#f7f7f7" class="tw0">0</text><text x="271" y="196" fill="#f7f7f7" class="tw1">1</text><text x="282" y="196" fill="#f7f7f7" class="tw2">0</text><text x="293" y="196" fill="#f7f7f7" class="tw0">0</text><text x="304" y="196" fill="#f7f7f7" class="tw1">1</text><text x="315" y="196" fill="#f7f7f7" class="tw2">0</text><text x="656" y="196" fill="#f7f7f7" class="tw0">1</text><text x="667" y="196" fill="#f7f7f7" class="tw1">0</text><text x="678" y="196" fill="#f7f7f7" class="tw2">0</text><text x="689" y="196" fill="#f7f7f7" class="tw0">1</text><text x="700" y="196" fill="#f7f7f7" class="tw1">0</text><text x="711" y="196" fill="#f7f7f7" class="tw2">1</text>
<text x="62" y="216" fill="#f7f7f7" class="tw1">0</text><text x="106" y="216" fill="#f7f7f7" class="tw2">1</text><text x="117" y="216" fill="#f7f7f7" class="tw0">1</text><text x="128" y="216" fill="#f7f7f7" class="tw1">1</text><text x="172" y="216" fill="#f7f7f7" class="tw2">0</text><text x="227" y="216" fill="#f7f7f7" class="tw1">0</text><text x="238" y="216" fill="#f7f7f7" class="tw2">0</text><text x="249" y="216" fill="#f7f7f7" class="tw0">0</text><text x="260" y="216" fill="#f7f7f7" class="tw1">1</text><text x="271" y="216" fill="#f7f7f7" class="tw2">1</text><text x="282" y="216" fill="#f7f7f7" class="tw0">1</text><text x="293" y="216" fill="#f7f7f7" class="tw1">0</text><text x="304" y="216" fill="#f7f7f7" class="tw2">0</text><text x="315" y="216" fill="#f7f7f7" class="tw0">0</text><text x="326" y="216" fill="#f7f7f7" class="tw1">0</text><text x="656" y="216" fill="#f7f7f7" class="tw1">1</text><text x="667" y="216" fill="#f7f7f7" class="tw2">1</text><text x="678" y="216" fill="#f7f7f7" class="tw0">0</text><text x="689" y="216" fill="#f7f7f7" class="tw1">0</text><text x="700" y="216" fill="#f7f7f7" class="tw2">0</text><text x="711" y="216" fill="#f7f7f7" class="tw0">0</text>
<text x="117" y="236" fill="#f7f7f7" class="tw1">1</text><text x="238" y="236" fill="#f7f7f7" class="tw0">0</text><text x="249" y="236" fill="#f7f7f7" class="tw1">0</text><text x="260" y="236" fill="#f7f7f7" class="tw2">0</text><text x="271" y="236" fill="#f7f7f7" class="tw0">1</text><text x="282" y="236" fill="#f7f7f7" class="tw1">1</text><text x="293" y="236" fill="#f7f7f7" class="tw2">1</text><text x="304" y="236" fill="#f7f7f7" class="tw0">0</text><text x="315" y="236" fill="#f7f7f7" class="tw1">0</text><text x="645" y="236" fill="#f7f7f7" class="tw1">0</text><text x="656" y="236" fill="#f7f7f7" class="tw2">1</text><text x="667" y="236" fill="#f7f7f7" class="tw0">1</text><text x="678" y="236" fill="#f7f7f7" class="tw1">1</text><text x="689" y="236" fill="#f7f7f7" class="tw2">0</text><text x="700" y="236" fill="#f7f7f7" class="tw0">0</text><text x="711" y="236" fill="#f7f7f7" class="tw1">0</text><text x="722" y="236" fill="#f7f7f7" class="tw2">0</text>
<text x="238" y="256" fill="#f7f7f7" class="tw1">0</text><text x="249" y="256" fill="#f7f7f7" class="tw2">1</text><text x="260" y="256" fill="#f7f7f7" class="tw0">0</text><text x="271" y="256" fill="#f7f7f7" class="tw1">0</text><text x="282" y="256" fill="#f7f7f7" class="tw2">1</text><text x="293" y="256" fill="#f7f7f7" class="tw0">0</text><text x="304" y="256" fill="#f7f7f7" class="tw1">1</text><text x="315" y="256" fill="#f7f7f7" class="tw2">0</text><text x="656" y="256" fill="#f7f7f7" class="tw0">0</text><text x="667" y="256" fill="#f7f7f7" class="tw1">1</text><text x="678" y="256" fill="#f7f7f7" class="tw2">0</text><text x="689" y="256" fill="#f7f7f7" class="tw0">1</text><text x="700" y="256" fill="#f7f7f7" class="tw1">0</text><text x="711" y="256" fill="#f7f7f7" class="tw2">1</text>
<text x="249" y="276" fill="#f7f7f7" class="tw0">1</text><text x="260" y="276" fill="#f7f7f7" class="tw1">1</text><text x="271" y="276" fill="#f7f7f7" class="tw2">0</text><text x="282" y="276" fill="#f7f7f7" class="tw0">0</text><text x="293" y="276" fill="#f7f7f7" class="tw1">1</text><text x="304" y="276" fill="#f7f7f7" class="tw2">0</text><text x="403" y="276" fill="#f7f7f7" class="tw2">1</text><text x="414" y="276" fill="#f7f7f7" class="tw0">1</text><text x="425" y="276" fill="#f7f7f7" class="tw1">0</text><text x="436" y="276" fill="#f7f7f7" class="tw2">0</text><text x="447" y="276" fill="#f7f7f7" class="tw0">1</text><text x="458" y="276" fill="#f7f7f7" class="tw1">0</text><text x="469" y="276" fill="#f7f7f7" class="tw2">0</text><text x="480" y="276" fill="#f7f7f7" class="tw0">1</text><text x="491" y="276" fill="#f7f7f7" class="tw1">1</text><text x="502" y="276" fill="#f7f7f7" class="tw2">0</text><text x="513" y="276" fill="#f7f7f7" class="tw0">0</text><text x="656" y="276" fill="#f7f7f7" class="tw1">0</text><text x="667" y="276" fill="#f7f7f7" class="tw2">0</text><text x="678" y="276" fill="#f7f7f7" class="tw0">1</text><text x="689" y="276" fill="#f7f7f7" class="tw1">0</text><text x="700" y="276" fill="#f7f7f7" class="tw2">0</text><text x="711" y="276" fill="#f7f7f7" class="tw0">1</text>
<text x="271" y="296" fill="#f7f7f7" class="tw0">0</text><text x="282" y="296" fill="#f7f7f7" class="tw1">0</text><text x="370" y="296" fill="#f7f7f7" class="tw0">0</text><text x="381" y="296" fill="#f7f7f7" class="tw1">0</text><text x="392" y="296" fill="#f7f7f7" class="tw2">0</text><text x="403" y="296" fill="#f7f7f7" class="tw0">0</text><text x="414" y="296" fill="#f7f7f7" class="tw1">0</text><text x="425" y="296" fill="#f7f7f7" class="tw2">0</text><text x="436" y="296" fill="#f7f7f7" class="tw0">0</text><text x="447" y="296" fill="#f7f7f7" class="tw1">0</text><text x="458" y="296" fill="#f7f7f7" class="tw2">0</text><text x="469" y="296" fill="#f7f7f7" class="tw0">0</text><text x="480" y="296" fill="#f7f7f7" class="tw1">0</text><text x="491" y="296" fill="#f7f7f7" class="tw2">0</text><text x="502" y="296" fill="#f7f7f7" class="tw0">0</text><text x="513" y="296" fill="#f7f7f7" class="tw1">0</text><text x="524" y="296" fill="#f7f7f7" class="tw2">0</text><text x="535" y="296" fill="#f7f7f7" class="tw0">0</text><text x="546" y="296" fill="#f7f7f7" class="tw1">0</text><text x="678" y="296" fill="#f7f7f7" class="tw1">0</text><text x="689" y="296" fill="#f7f7f7" class="tw2">0</text>
<text x="271" y="316" fill="#f7f7f7" class="tw1">0</text><text x="282" y="316" fill="#f7f7f7" class="tw2">0</text><text x="348" y="316" fill="#f7f7f7" class="tw2">0</text><text x="359" y="316" fill="#f7f7f7" class="tw0">0</text><text x="557" y="316" fill="#f7f7f7" class="tw0">0</text><text x="568" y="316" fill="#f7f7f7" class="tw1">1</text><text x="678" y="316" fill="#f7f7f7" class="tw2">1</text><text x="689" y="316" fill="#f7f7f7" class="tw0">1</text>
<text x="271" y="336" fill="#f7f7f7" class="tw2">1</text><text x="282" y="336" fill="#f7f7f7" class="tw0">0</text><text x="337" y="336" fill="#f7f7f7" class="tw2">0</text><text x="348" y="336" fill="#f7f7f7" class="tw0">1</text><text x="568" y="336" fill="#f7f7f7" class="tw2">0</text><text x="579" y="336" fill="#f7f7f7" class="tw0">1</text><text x="634" y="336" fill="#f7f7f7" class="tw2">1</text><text x="678" y="336" fill="#f7f7f7" class="tw0">0</text><text x="689" y="336" fill="#f7f7f7" class="tw1">1</text>
<text x="172" y="356" fill="#f7f7f7" class="tw0">0</text><text x="271" y="356" fill="#f7f7f7" class="tw0">1</text><text x="282" y="356" fill="#f7f7f7" class="tw1">1</text><text x="348" y="356" fill="#f7f7f7" class="tw1">1</text><text x="359" y="356" fill="#f7f7f7" class="tw2">1</text><text x="557" y="356" fill="#f7f7f7" class="tw2">0</text><text x="568" y="356" fill="#f7f7f7" class="tw0">1</text><text x="623" y="356" fill="#f7f7f7" class="tw2">0</text><text x="634" y="356" fill="#f7f7f7" class="tw0">0</text><text x="645" y="356" fill="#f7f7f7" class="tw1">1</text><text x="678" y="356" fill="#f7f7f7" class="tw1">0</text><text x="689" y="356" fill="#f7f7f7" class="tw2">0</text>
<text x="161" y="376" fill="#f7f7f7" class="tw0">0</text><text x="172" y="376" fill="#f7f7f7" class="tw1">0</text><text x="183" y="376" fill="#f7f7f7" class="tw2">0</text><text x="271" y="376" fill="#f7f7f7" class="tw1">1</text><text x="282" y="376" fill="#f7f7f7" class="tw2">1</text><text x="370" y="376" fill="#f7f7f7" class="tw1">1</text><text x="381" y="376" fill="#f7f7f7" class="tw2">0</text><text x="392" y="376" fill="#f7f7f7" class="tw0">0</text><text x="403" y="376" fill="#f7f7f7" class="tw1">0</text><text x="414" y="376" fill="#f7f7f7" class="tw2">0</text><text x="425" y="376" fill="#f7f7f7" class="tw0">1</text><text x="436" y="376" fill="#f7f7f7" class="tw1">1</text><text x="447" y="376" fill="#f7f7f7" class="tw2">1</text><text x="458" y="376" fill="#f7f7f7" class="tw0">0</text><text x="469" y="376" fill="#f7f7f7" class="tw1">0</text><text x="480" y="376" fill="#f7f7f7" class="tw2">0</text><text x="491" y="376" fill="#f7f7f7" class="tw0">0</text><text x="513" y="376" fill="#f7f7f7" class="tw2">1</text><text x="524" y="376" fill="#f7f7f7" class="tw0">1</text><text x="535" y="376" fill="#f7f7f7" class="tw1">0</text><text x="546" y="376" fill="#f7f7f7" class="tw2">0</text><text x="634" y="376" fill="#f7f7f7" class="tw1">0</text><text x="678" y="376" fill="#f7f7f7" class="tw2">1</text><text x="689" y="376" fill="#f7f7f7" class="tw0">0</text>
<text x="172" y="396" fill="#f7f7f7" class="tw2">1</text><text x="271" y="396" fill="#f7f7f7" class="tw2">0</text><text x="282" y="396" fill="#f7f7f7" class="tw0">1</text><text x="403" y="396" fill="#f7f7f7" class="tw2">1</text><text x="414" y="396" fill="#f7f7f7" class="tw0">0</text><text x="425" y="396" fill="#f7f7f7" class="tw1">0</text><text x="436" y="396" fill="#f7f7f7" class="tw2">1</text><text x="447" y="396" fill="#f7f7f7" class="tw0">0</text><text x="458" y="396" fill="#f7f7f7" class="tw1">1</text><text x="469" y="396" fill="#f7f7f7" class="tw2">0</text><text x="480" y="396" fill="#f7f7f7" class="tw0">1</text><text x="491" y="396" fill="#f7f7f7" class="tw1">0</text><text x="502" y="396" fill="#f7f7f7" class="tw2">0</text><text x="513" y="396" fill="#f7f7f7" class="tw0">1</text><text x="634" y="396" fill="#f7f7f7" class="tw2">1</text><text x="678" y="396" fill="#f7f7f7" class="tw0">0</text><text x="689" y="396" fill="#f7f7f7" class="tw1">1</text>
<text x="62" y="416" fill="#f7f7f7" class="tw2">1</text><text x="139" y="416" fill="#f7f7f7" class="tw0">1</text><text x="172" y="416" fill="#f7f7f7" class="tw0">1</text><text x="238" y="416" fill="#f7f7f7" class="tw0">0</text><text x="348" y="416" fill="#f7f7f7" class="tw1">0</text><text x="458" y="416" fill="#f7f7f7" class="tw2">0</text><text x="568" y="416" fill="#f7f7f7" class="tw0">1</text><text x="634" y="416" fill="#f7f7f7" class="tw0">1</text><text x="700" y="416" fill="#f7f7f7" class="tw0">0</text><text x="766" y="416" fill="#f7f7f7" class="tw0">0</text>
<text x="51" y="436" fill="#f7f7f7" class="tw2">0</text><text x="62" y="436" fill="#f7f7f7" class="tw0">0</text><text x="73" y="436" fill="#f7f7f7" class="tw1">0</text><text x="128" y="436" fill="#f7f7f7" class="tw0">0</text><text x="139" y="436" fill="#f7f7f7" class="tw1">0</text><text x="150" y="436" fill="#f7f7f7" class="tw2">0</text><text x="172" y="436" fill="#f7f7f7" class="tw1">0</text><text x="227" y="436" fill="#f7f7f7" class="tw0">0</text><text x="238" y="436" fill="#f7f7f7" class="tw1">0</text><text x="249" y="436" fill="#f7f7f7" class="tw2">0</text><text x="337" y="436" fill="#f7f7f7" class="tw1">0</text><text x="348" y="436" fill="#f7f7f7" class="tw2">0</text><text x="359" y="436" fill="#f7f7f7" class="tw0">0</text><text x="447" y="436" fill="#f7f7f7" class="tw2">0</text><text x="458" y="436" fill="#f7f7f7" class="tw0">0</text><text x="469" y="436" fill="#f7f7f7" class="tw1">0</text><text x="557" y="436" fill="#f7f7f7" class="tw0">0</text><text x="568" y="436" fill="#f7f7f7" class="tw1">0</text><text x="579" y="436" fill="#f7f7f7" class="tw2">0</text><text x="634" y="436" fill="#f7f7f7" class="tw1">0</text><text x="689" y="436" fill="#f7f7f7" class="tw0">0</text><text x="700" y="436" fill="#f7f7f7" class="tw1">0</text><text x="711" y="436" fill="#f7f7f7" class="tw2">0</text><text x="755" y="436" fill="#f7f7f7" class="tw0">0</text><text x="766" y="436" fill="#f7f7f7" class="tw1">0</text><text x="777" y="436" fill="#f7f7f7" class="tw2">0</text>
<g class="swim" fill="#f7f7f7">
<text x="392" y="316">0</text>
<text x="403" y="336">1</text>
<text x="414" y="336">0</text>
<text x="425" y="336">1</text>
<text x="436" y="336">0</text>
<text x="502" y="336">1</text>
<text x="392" y="356">0</text>
<text x="513" y="356">1</text>
<text x="524" y="356">0</text>
<text x="535" y="356">0</text>
<text x="546" y="356">0</text>
<text x="502" y="376">1</text>
</g>
</svg>